<svg width="122" height="46" viewBox="0 0 122 46" fill="none" xmlns="http://www.w3.org/2000/svg">
<g clip-path="url(#clip0)">
<path fill-rule="evenodd" clip-rule="evenodd" d="M1.98101 45.9999H93.5471C93.5471 45.9999 101.706 45.8842 105.264 44.6488C108.761 43.4363 114.688 41.0829 117.103 39.1599C119.043 37.6141 118.76 37.0237 114.231 37.0843C103.455 37.2262 47.3957 37.5001 2.167 44.7538C-1.96475 45.4155 0.883931 45.9999 1.98101 45.9999Z" fill="#DBE1E9"/>
<path fill-rule="evenodd" clip-rule="evenodd" d="M94.3925 27.3082L97.5202 11.2856C97.6129 10.9058 98.4911 8.68843 100.278 8.66992H103.647L100.008 27.3079H94.3925V27.3082Z" fill="#DBE1E9"/>
<path fill-rule="evenodd" clip-rule="evenodd" d="M12.4847 27.3084L16.0781 9.73801C16.1813 9.32191 17.1247 6.88984 18.9116 6.86963H22.2803L18.1007 27.3084H12.4847Z" fill="#DBE1E9"/>
<path fill-rule="evenodd" clip-rule="evenodd" d="M98.6624 5.46493L99.7021 0.137207H105.318L104.895 2.30219C104.385 4.91711 102.579 5.46493 101.863 5.46493H98.6624Z" fill="#DBE1E9"/>
<path fill-rule="evenodd" clip-rule="evenodd" d="M75.4261 27.3086L79.0641 8.67053H81.2544C82.4578 8.67053 83.4946 9.18378 83.4843 11.7851C84.9972 9.5899 87.0725 8.18018 89.1949 8.18018C90.2133 8.18018 91.1399 8.50521 91.9345 9.08542L91.885 9.04963L91.9904 9.12681L91.9417 9.09053L92.2016 9.29359L92.1573 9.25658C93.9912 10.7929 93.8775 13.3901 93.6778 14.4803L91.1742 27.3083H85.5586L87.7785 15.9358C87.9653 14.4976 87.6847 13.5766 86.9135 13.5766C86.0566 13.5766 84.7914 14.7155 83.5796 16.4389C83.0584 17.18 82.8697 17.9555 82.792 18.3462L81.0426 27.3083H75.4261V27.3086ZM92.0505 9.17307L92.0914 9.20569L92.0505 9.17307ZM92.1071 9.21689L92.1404 9.24392L92.1071 9.21689ZM92.0419 9.16625L91.9938 9.12948L92.0419 9.16625ZM91.8816 9.04841L91.8294 9.01091L91.8816 9.04841ZM91.8272 9.00921L91.7189 8.93714L91.8272 9.00921ZM91.7164 8.93519L91.6633 8.90062L91.7164 8.93519ZM91.3746 8.7314L91.2577 8.67053L91.3746 8.7314Z" fill="#DBE1E9"/>
<path fill-rule="evenodd" clip-rule="evenodd" d="M61.8655 27.3083H56.2502L57.9153 18.7757H57.9146L61.0544 2.69248C61.2593 1.59392 62.3762 0.136719 63.4588 0.136719H67.1691L66.926 1.38063H66.9275L65.0933 10.7732C66.5016 9.16599 68.2434 8.17992 70.019 8.17992C71.0377 8.17992 71.9639 8.50496 72.7586 9.08516L72.7089 9.04937L72.814 9.12655L72.7652 9.09027L73.0243 9.29357L72.9801 9.25657C74.8138 10.7929 74.7009 13.39 74.5014 14.4803L71.9968 27.3083H66.3817L68.6011 15.9358C68.7879 14.4976 68.5078 13.5765 67.7373 13.5765C66.8794 13.5765 65.614 14.7155 64.4022 16.4388C63.8818 17.1785 63.6933 17.9525 63.6159 18.3445L61.8655 27.3083ZM72.8748 9.17281L72.9152 9.20544L72.8748 9.17281ZM72.9304 9.21664L72.9642 9.24366L72.9304 9.21664ZM72.865 9.16599L72.8182 9.12923L72.865 9.16599ZM72.7062 9.04815L72.6533 9.01066L72.7062 9.04815ZM72.6508 9.00895L72.5425 8.93688L72.6508 9.00895ZM72.5398 8.93494L72.4859 8.90036L72.5398 8.93494ZM72.198 8.73115L72.0813 8.67028L72.198 8.73115Z" fill="#DBE1E9"/>
<path fill-rule="evenodd" clip-rule="evenodd" d="M52.3368 12.9271C53.6846 12.9271 54.7947 13.5451 55.4705 14.5251L56.5159 9.16811C55.3286 8.51852 53.8934 8.14844 52.2898 8.14844C50.0145 8.14844 47.7789 8.89372 45.9217 10.1255H45.8884C43.568 11.9635 41.8297 14.7123 41.3239 17.7752C40.4145 23.287 43.8332 27.783 48.9346 27.783C51.0327 27.783 53.097 27.0219 54.8635 25.7429L54.0061 21.3531C53.0563 22.141 51.8886 22.6228 50.6992 22.6228C48.1688 22.6228 46.4741 20.4447 46.9252 17.7752C47.3766 15.105 49.807 12.9271 52.3368 12.9271Z" fill="#DBE1E9"/>
<path fill-rule="evenodd" clip-rule="evenodd" d="M32.941 0L11.5748 0.00803468C11.1874 0.0253214 8.84963 0.447507 8.43574 2.12943L7.68982 5.30727L29.1217 5.29875C29.6319 5.24932 31.6888 4.81643 32.1635 3.31004L32.941 0Z" fill="#DBE1E9"/>
<path fill-rule="evenodd" clip-rule="evenodd" d="M102.064 34.7062L103.508 27.3077H103.507L107.145 8.67041H108.769H112.76H114.41H114.474V8.6709C119.43 8.70766 122.742 12.8708 121.857 17.9707C120.966 23.0934 116.169 27.2719 111.177 27.2719C110.542 27.2719 109.849 27.222 109.161 27.1185L107.679 34.7059H102.064V34.7062ZM112.757 13.0345C115.08 13.0345 116.635 15.252 116.221 17.9707C115.808 20.69 113.576 22.9066 111.254 22.9066C110.814 22.9066 110.402 22.827 110.027 22.6802L111.889 13.1362C112.175 13.0698 112.466 13.0345 112.757 13.0345Z" fill="#DBE1E9"/>
<path fill-rule="evenodd" clip-rule="evenodd" d="M37.5783 25.5779C35.7637 26.9567 33.6139 27.7835 31.4266 27.7835C26.3257 27.7835 22.9063 23.2875 23.8164 17.7757C24.3322 14.6502 26.0767 11.7599 28.524 10.0142C30.2391 8.78976 32.3889 7.969 34.5189 8.15064C38.1098 8.45742 40.3679 12.1784 39.6943 16.3949C39.5142 17.5203 39.14 18.5945 38.6168 19.575H29.1521C29.0972 21.9547 30.0541 22.7102 32.4085 22.7102C33.8259 22.7102 35.4478 22.1578 36.7569 21.367L37.5783 25.5779ZM32.7829 12.6211C34.2204 12.6211 35.1839 13.8881 34.9278 15.443C34.8994 15.6163 34.8565 15.786 34.8012 15.9504H29.6672C29.6657 15.7858 29.6797 15.6161 29.7081 15.443C29.9642 13.8881 31.346 12.6211 32.7829 12.6211Z" fill="#DBE1E9"/>
</g>
<defs>
<clipPath id="clip0">
<rect width="122" height="46" fill="white"/>
</clipPath>
</defs>
</svg>
