<svg width="48" height="62" viewBox="0 0 48 62" fill="none" xmlns="http://www.w3.org/2000/svg">
<g clip-path="url(#clip0)">
<path d="M26.0583 28.1312C19.812 26.9267 13.7821 25.7637 12.6584 25.5466L10.6155 25.1518V21.1995C10.6155 19.0258 10.6372 17.2469 10.6637 17.2466C10.799 17.2447 37.358 22.3824 37.3996 22.4184C37.4264 22.4417 37.4409 24.2293 37.4318 26.3909L37.4152 30.3211L26.0583 28.1312V28.1312Z" fill="#DBE1E9"/>
<path d="M1.51072 61.9569C0.979873 61.926 0.419314 61.8836 0.265034 61.8626C-0.00765648 61.8255 -0.0143826 61.819 0.0237401 61.6298C0.0453088 61.5227 0.062956 61.1225 0.062956 60.7404V60.0458H2.24109C3.68594 60.0458 4.48898 60.0216 4.62645 59.974C4.87479 59.8881 4.95318 59.7131 4.95318 59.2446C4.95318 58.9557 4.9294 58.8839 4.8084 58.8078C4.72877 58.7577 3.92527 58.5853 3.02283 58.4246C1.0741 58.0775 0.778754 57.9969 0.470191 57.728C0.0601613 57.3706 0.00162951 57.1525 2.40765e-05 55.9759C-0.00170063 54.7119 0.0883426 54.3902 0.558818 53.9791C1.0075 53.587 1.49506 53.4568 2.66083 53.418C3.53837 53.3888 5.98473 53.4877 6.48137 53.5725L6.69049 53.6083V54.4954V55.3826H4.60454C3.45727 55.3826 2.47279 55.4001 2.41681 55.4214C2.34163 55.45 2.31503 55.5491 2.31503 55.8004C2.31503 56.0918 2.33476 56.1468 2.4526 56.1839C2.52827 56.2078 3.33771 56.3651 4.25137 56.5336C6.03125 56.8617 6.44133 56.9952 6.80165 57.3635C7.13673 57.7061 7.17308 57.8967 7.17308 59.3112V60.5887L6.98005 60.972C6.75567 61.4175 6.40191 61.7132 5.89943 61.8752C5.62931 61.9624 5.26547 61.9861 4.02018 61.9981C3.17082 62.0062 2.04157 61.9877 1.51072 61.9569V61.9569ZM7.67393 61.8793C7.71439 61.7746 10.0833 54.3699 10.2061 53.9643C10.363 53.4458 10.2817 53.4663 12.1887 53.4663C13.4889 53.4663 13.8973 53.4853 13.95 53.5484C13.9877 53.5935 14.5949 55.4404 15.2992 57.6525C16.0035 59.8647 16.6009 61.74 16.6267 61.8198L16.6735 61.9649L15.4374 61.9475L14.2013 61.9302L13.9293 61.0039L13.6573 60.0777L12.1752 60.0606L10.6931 60.0434L10.5616 60.4758C10.4892 60.7136 10.3634 61.1453 10.2819 61.4351L10.1339 61.9621H8.88789C7.89342 61.9621 7.64837 61.9454 7.67393 61.8793V61.8793ZM13.123 58.1134C13.122 58.0695 12.9379 57.4012 12.714 56.6283C12.3354 55.3216 12.2965 55.2229 12.1589 55.2229C12.0209 55.2229 11.9833 55.3202 11.6035 56.6602C11.3795 57.4507 11.1958 58.119 11.1954 58.1454C11.195 58.1717 11.629 58.1933 12.1598 58.1933C12.8901 58.1933 13.1245 58.1739 13.123 58.1134V58.1134ZM17.6291 57.7142V53.4663H18.7552H19.8812V57.7142V61.9621H18.7552H17.6291V57.7142ZM21.4255 57.7111V53.4602L24.3049 53.4792C27.1323 53.4979 27.191 53.5009 27.5477 53.6441C28.0356 53.8399 28.4565 54.221 28.6768 54.6663C28.8544 55.0252 28.8577 55.0533 28.8781 56.3565C28.902 57.8814 28.8521 58.1537 28.4541 58.6724C28.1592 59.0568 27.5681 59.38 26.9913 59.4722C26.779 59.5062 25.961 59.5341 25.1736 59.5344L23.7419 59.5349V60.7486V61.9622H22.5837H21.4255V57.7113V57.7111ZM26.217 57.5915C26.5711 57.4446 26.6521 57.2091 26.6269 56.3986C26.6063 55.7388 26.5965 55.6959 26.427 55.5276L26.2488 55.3507L24.9953 55.3309L23.7419 55.3112V56.4967V57.6822H24.87C25.6994 57.6822 26.0561 57.6582 26.217 57.5915V57.5915ZM30.1764 57.7142V53.4663H33.4259H36.6753V54.3925V55.3187H34.5519H32.4285V56.0214V56.7241H34.2302H36.0318V57.6822V58.6404H34.2302H32.4285V59.3431V60.0457H34.5519H36.6753V61.0039V61.9621H33.4259H30.1764V57.7142ZM38.1552 57.7142V53.4663H39.6013H41.0474L41.1357 53.6419C41.1843 53.7385 41.6266 54.8878 42.1186 56.1958C42.6107 57.5038 43.0297 58.5745 43.0497 58.5752C43.0697 58.576 43.5185 57.4339 44.047 56.0374L45.008 53.4982L46.4718 53.481L47.9357 53.4639V57.713V61.9621H46.8096H45.6836L45.6788 59.6465L45.6739 57.3309L44.8905 59.6305L44.1071 61.9302H43.0508H41.9945L41.217 59.6305L40.4395 57.3309L40.4226 59.6465L40.4057 61.9621H39.2805H38.1552V57.7142H38.1552ZM0.062956 41.5849V35.5803H4.08452H8.10608V37.5605V39.5408H15.5058H22.9054V43.5651V47.5895H11.4842H0.062956V41.5849ZM25.1575 43.5651V39.5408H28.1711C29.8286 39.5408 33.144 39.5217 35.5386 39.4983L39.8925 39.4559V31.1548C39.8925 23.2805 39.8983 22.8551 40.0051 22.8824C40.0671 22.8983 41.8911 23.2538 44.0584 23.6724L47.9992 24.4335L47.9996 36.0115L48 47.5895H36.5787H25.1575V43.5651L25.1575 43.5651ZM6.07922 24.2765C5.05291 24.0745 3.2794 23.7292 2.13808 23.5091L0.062956 23.1089V11.5544V0H11.4842H22.9054V3.96047V7.92093H15.5058H8.10608V16.289C8.10608 22.9445 8.08962 24.6557 8.02565 24.6504C7.98142 24.6467 7.10552 24.4785 6.07922 24.2765V24.2765ZM39.8925 9.90116V7.92093H32.525H25.1575V3.96047V0H36.5788H48V5.9407V11.8814H43.9463H39.8925V9.90116Z" fill="#DBE1E9"/>
</g>
<defs>
<clipPath id="clip0">
<rect width="48" height="62" fill="white"/>
</clipPath>
</defs>
</svg>
