<svg width="112" height="48" viewBox="0 0 112 48" fill="none" xmlns="http://www.w3.org/2000/svg">
<g clip-path="url(#clip0)">
<path fill-rule="evenodd" clip-rule="evenodd" d="M24.8972 32.123C24.5174 32.5239 23.4836 32.6715 23.1932 33.1311C22.7504 33.8247 21.7327 35.4045 20.9383 36.1569C18.3744 38.5918 12.8849 39.8152 10.1777 37.4902C10.0002 37.5022 10.1027 37.6054 10.3162 38.2708C10.5129 39.5296 11.5276 42.4853 11.1526 43.2395C11.3968 44.0789 11.65 43.7717 12.1114 44.2379C12.4258 44.5523 12.5542 45.3749 12.9154 45.5975C13.3276 45.5694 13.7405 45.5388 14.1527 45.5106C14.2259 45.7404 14.3052 45.9702 14.3777 46.2048C14.9051 46.167 15.4373 46.1274 15.9671 46.0896C16.2647 46.158 17.1647 46.6218 17.4293 46.6944C18.018 46.6524 18.606 46.6122 19.1922 46.5726C20.5398 46.9314 21.7164 46.3686 22.8528 45.6C23.4859 45.1758 24.1795 45.2436 24.7423 44.7629C25.5577 44.0621 26.6689 42.6959 27.1891 41.7491C28.4641 39.4336 28.0304 33.8835 26.8753 32.5119C26.4229 32.0174 25.8883 32.0085 24.8971 32.1231L24.8972 32.123ZM35.5612 30.602C34.6047 31.3334 34.2039 31.1528 33.6441 32.2827C33.5854 32.2827 33.7281 32.4513 33.6724 32.4513C34.2418 33.5901 35.5474 34.0473 36.508 34.8465C36.8056 35.0997 37.6168 36.5061 38.0014 36.6069C38.4346 37.1224 38.7161 38.5498 38.9999 38.5498C39.2927 38.9506 38.9742 39.895 39.2621 40.2628C39.2796 41.9555 39.0466 42.0725 38.7515 42.3983C38.7515 42.5153 38.913 42.8225 38.913 42.9371C38.9927 43.0169 39.6726 43.5047 39.9678 43.4459C40.8888 43.4717 44.6623 46.4178 44.9623 46.9854C47.6696 47.1888 47.4728 46.3614 49.3406 45.5694C49.8446 45.3516 50.2478 45.5579 50.5779 45.2129C50.9253 44.8595 50.9529 44.1605 51.2859 43.7975C51.3304 37.1386 42.2719 30.8318 35.5613 30.602L35.5612 30.602ZM42.9138 16.5323C39.5597 17.0357 37.5089 18.1073 36.2411 18.984C35.3549 19.6026 35.0975 20.0148 34.9097 20.2752C34.7152 20.535 34.5862 21.1098 34.6799 21.7164C34.7784 22.3164 35.025 22.9566 35.5476 23.3148C39.6655 23.01 46.8188 22.7502 48.2108 26.2099C48.2833 26.6923 48.3938 26.9833 48.4028 27.0979C49.7672 26.7601 48.7688 26.8801 50.7794 27.1939C51.239 27.2665 52.3737 27.0109 53.1261 26.8261C53.4681 26.7463 53.6625 26.4367 53.6625 26.4367C53.6625 26.4367 53.597 26.1067 53.6157 25.9261C53.6157 25.9261 54.3214 25.9801 54.6094 25.7575C56.515 25.4503 55.5142 24.5551 56.4118 23.5447C55.873 17.0759 49.235 15.5735 42.9139 16.5323H42.9138ZM17.3738 28.3262C18.1118 28.136 19.3682 28.0376 20.0264 27.7099C21.0764 27.1849 24.6813 24.6649 23.5329 22.6116C23.1813 18.2873 17.9618 21.9414 15.7375 20.4252C13.4899 20.1348 10.9632 15.8831 10.2858 14.0596C10.0236 13.3396 10.1311 13.5856 9.77038 13.0162C9.77278 12.958 9.54062 13.213 9.54287 13.1548C8.88644 13.9186 8.99925 14.5888 8.89605 16.4549C8.60085 16.4356 8.30746 16.4195 8.01226 16.3985C7.95576 17.0759 7.88799 17.4437 7.57182 17.7929C7.50832 17.9081 7.44034 18.0179 7.37509 18.1349C6.81467 17.9477 7.09608 18.2123 6.86865 17.7437C4.79923 17.8493 4.95102 19.9308 4 21.1116C4.042 24.9979 11.7294 29.7884 17.3737 28.3262L17.3738 28.3262ZM32.3506 7.20388C32.5281 5.73624 32.3104 3.59179 33.4685 2.58197C33.8081 1.01594 36.2741 1.38195 35.8895 0.383526C35.6508 -0.24049 34.4927 0.0577164 34.0241 0.172325C33.6677 0.256924 30.2878 1.32555 28.9894 1.47075C28.4385 1.31835 27.8878 1.16594 27.3393 1.01114C25.2159 1.29734 23.9925 2.98458 22.8134 4.32561C21.8246 5.44824 20.4836 8.20231 21.5504 9.84995C21.4916 10.2088 21.4304 10.5694 21.3722 10.9306L23.7812 14.4509C24.6134 15.0485 24.7238 15.4913 25.6191 16.0799C25.8038 16.3565 25.9869 16.6331 26.1723 16.9115C26.9031 17.3921 29.0643 17.3993 29.4255 17.0849C32.9014 17.4089 32.524 10.375 33.6257 8.89592C33.4872 8.2329 32.9032 7.54349 32.3506 7.20388" fill="#DBE1E9"/>
<path d="M88.2569 33.269C91.3344 33.269 93.8377 32.252 93.8377 26.8164C93.8377 22.1921 91.3344 20.6549 88.2569 20.6549H86.6423V33.269H88.2569ZM89.8884 16.9888C95.4596 16.9888 99.2306 20.5115 99.2306 26.8164C99.2306 34.7384 94.0531 37.0845 88.6254 37.0845H81.3616C81.3873 36.6441 81.3616 35.4722 81.3616 34.0028V20.0687C81.3616 18.6017 81.3873 17.6638 81.3616 16.9888" fill="#DBE1E9"/>
<path d="M107.129 34.0027C107.129 35.4721 107.202 37.085 107.202 37.085H101.814C101.814 37.085 101.849 35.4721 101.849 34.0027V20.0662C101.849 18.5991 101.814 16.9893 101.814 16.9893H114.553V20.8774C114.553 20.8774 111.704 20.8048 110.739 20.8048H107.129V24.8525L110.739 24.8897C111.414 24.8897 113.739 24.8525 113.739 24.8525V28.5558C113.739 28.5558 111.677 28.4994 110.739 28.4994L107.129 28.5204" fill="#DBE1E9"/>
<path d="M66.1224 24.5829C66.2021 23.42 66.6168 20.72 69.5533 20.72C72.5629 20.72 72.7273 23.2562 72.7273 24.5991V24.8691C72.7273 24.8691 70.7161 24.9249 69.516 24.9249C68.316 24.9249 66.1032 24.8691 66.1032 24.8691L66.1232 24.5829H66.1224ZM70.6057 33.0226C68.0724 33.0226 66.1224 31.3168 66.1224 28.6515V28.4242C66.1224 28.4242 70.8307 28.3096 72.4273 28.3096C75.1412 28.3096 76.2614 28.2838 78.4016 28.2556V26.7393C78.4016 19.8932 75.4976 16.5601 69.516 16.5601C66.7596 16.5601 60.3496 17.5957 60.3496 27.1845C60.3496 33.5831 63.5789 37.4058 69.2257 37.4058C73.6574 37.4058 76.3784 36.2735 78.35 34.8347C78.1275 34.5017 76.4774 31.5346 76.2614 31.2112C75.0776 32.1136 73.1257 33.0227 70.6057 33.0227" fill="#DBE1E9"/>
</g>
<defs>
<clipPath id="clip0">
<rect width="112" height="48" fill="white"/>
</clipPath>
</defs>
</svg>
