<svg width="320" height="239" viewBox="0 0 320 239" fill="none" xmlns="http://www.w3.org/2000/svg">
<g clip-path="url(#clip0)">
<path d="M174.107 24.3153C178.28 24.3153 181.663 20.9326 181.663 16.7598C181.663 12.587 178.28 9.20435 174.107 9.20435C169.935 9.20435 166.552 12.587 166.552 16.7598C166.552 20.9326 169.935 24.3153 174.107 24.3153Z" fill="#4C86A8"/>
<path d="M173.359 19.6418C173.189 19.6421 173.023 19.5871 172.887 19.4852L172.879 19.4788L171.103 18.1205C171.021 18.0575 170.952 17.9789 170.9 17.8891C170.848 17.7994 170.815 17.7004 170.801 17.5976C170.788 17.4949 170.794 17.3905 170.821 17.2904C170.848 17.1903 170.894 17.0964 170.957 17.0142C171.02 16.932 171.099 16.8629 171.189 16.8111C171.278 16.7592 171.377 16.7256 171.48 16.712C171.583 16.6984 171.687 16.7052 171.787 16.732C171.888 16.7588 171.981 16.805 172.064 16.8681L173.214 17.75L175.931 14.2044C175.994 14.1222 176.073 14.0532 176.163 14.0013C176.252 13.9495 176.351 13.9159 176.454 13.9023C176.557 13.8887 176.661 13.8955 176.761 13.9223C176.861 13.9491 176.955 13.9953 177.037 14.0583L177.038 14.0585L177.021 14.0819L177.038 14.0585C177.204 14.1859 177.312 14.374 177.34 14.5813C177.367 14.7887 177.311 14.9985 177.184 15.1646L173.987 19.3332C173.913 19.4292 173.818 19.5069 173.709 19.5603C173.6 19.6137 173.481 19.6412 173.36 19.6409L173.359 19.6418Z" fill="white"/>
<path d="M174.107 75.3927C178.28 75.3927 181.663 72.01 181.663 67.8372C181.663 63.6644 178.28 60.2817 174.107 60.2817C169.935 60.2817 166.552 63.6644 166.552 67.8372C166.552 72.01 169.935 75.3927 174.107 75.3927Z" fill="#4C86A8"/>
<path d="M173.359 70.7192C173.189 70.7195 173.023 70.6645 172.887 70.5625L172.879 70.5562L171.103 69.1979C171.021 69.1349 170.952 69.0562 170.9 68.9665C170.848 68.8768 170.815 68.7777 170.801 68.675C170.788 68.5723 170.794 68.4679 170.821 68.3678C170.848 68.2677 170.894 68.1738 170.957 68.0916C171.02 68.0093 171.099 67.9403 171.189 67.8885C171.278 67.8366 171.377 67.803 171.48 67.7894C171.583 67.7758 171.687 67.7826 171.787 67.8094C171.888 67.8362 171.981 67.8824 172.064 67.9454L173.214 68.8274L175.931 65.2817C175.994 65.1995 176.073 65.1306 176.163 65.0787C176.252 65.0269 176.351 64.9933 176.454 64.9797C176.557 64.9661 176.661 64.9729 176.761 64.9997C176.861 65.0265 176.955 65.0727 177.037 65.1357L177.038 65.1359L177.021 65.1593L177.038 65.1359C177.204 65.2633 177.312 65.4514 177.34 65.6587C177.367 65.8661 177.311 66.0759 177.184 66.242L173.987 70.4105C173.913 70.5066 173.818 70.5843 173.709 70.6377C173.6 70.6911 173.481 70.7186 173.36 70.7183L173.359 70.7192Z" fill="white"/>
<path d="M193.082 147.23C193.058 146.604 193.171 145.98 193.414 145.402C193.656 144.824 194.023 144.306 194.488 143.885C194.952 143.464 195.503 143.15 196.102 142.965C196.701 142.78 197.333 142.729 197.954 142.815L204.874 129.238L208.784 136.124L201.614 147.961C201.4 148.994 200.815 149.914 199.969 150.545C199.123 151.176 198.075 151.475 197.023 151.385C195.972 151.295 194.99 150.822 194.263 150.056C193.537 149.291 193.117 148.285 193.082 147.23L193.082 147.23Z" fill="#FFB7B7"/>
<path d="M225.343 232.719L219.912 232.718L217.329 211.772L225.344 211.773L225.343 232.719Z" fill="#FFB7B7"/>
<path d="M226.727 237.983L209.217 237.982V237.761C209.217 235.953 209.935 234.22 211.214 232.942C212.492 231.663 214.225 230.945 216.033 230.945H216.033L226.728 230.946L226.727 237.983Z" fill="#2F2E41"/>
<path d="M254.781 232.719L249.35 232.718L246.767 211.772L254.782 211.773L254.781 232.719Z" fill="#FFB7B7"/>
<path d="M256.166 237.983L238.656 237.982V237.761C238.656 235.953 239.374 234.22 240.652 232.942C241.93 231.663 243.664 230.945 245.471 230.945H245.472L256.166 230.946L256.166 237.983Z" fill="#2F2E41"/>
<path d="M201.423 135.414L199.052 139.365C199.052 139.365 203.003 139.365 203.794 145.292L206.954 141.341L201.423 135.414Z" fill="#E5E5E5"/>
<path d="M242.91 127.117C242.91 127.117 249.231 143.712 250.417 153.984C251.602 164.257 253.578 191.52 253.578 191.52L257.529 226.685L246.466 228.265L241.724 192.705L231.056 157.54L228.686 192.705L226.71 224.709L216.437 225.104L215.647 191.915L211.301 149.638L213.671 129.488L242.91 127.117Z" fill="#2F2E41"/>
<path d="M225.13 76.9824C230.585 76.9824 235.007 72.5599 235.007 67.1046C235.007 61.6492 230.585 57.2268 225.13 57.2268C219.674 57.2268 215.252 61.6492 215.252 67.1046C215.252 72.5599 219.674 76.9824 225.13 76.9824Z" fill="#FFB7B7"/>
<path d="M235.205 76.7405L239.156 79.5058L244.293 131.266L212.289 132.056L216.635 96.1008L220.586 85.8279L223.438 82.0573L235.205 76.7405Z" fill="#E5E5E5"/>
<path d="M235.995 113.881L237.204 78.1396C237.204 78.1396 239.551 78.3206 240.341 79.506C241.131 80.6913 254.17 83.062 254.17 83.062L251.799 119.807C251.799 119.807 261.677 149.046 258.121 150.626C254.565 152.206 248.243 151.811 248.243 151.811L235.995 113.881Z" fill="#2F2E41"/>
<path d="M216.832 109.337L221.024 85.249L211.696 91.557L214.067 108.942L212.091 120.795C212.091 120.795 204.584 153.589 206.955 154.775C209.325 155.96 212.091 154.775 212.091 154.775L216.832 121.585V109.337Z" fill="#2F2E41"/>
<path d="M214.462 90.7668L211.696 91.5571L210.51 107.362L208.535 121.19L199.052 138.18C199.052 138.18 203.794 135.019 205.769 144.107L216.212 125.925L214.462 90.7668Z" fill="#2F2E41"/>
<path d="M233.399 57.6931L235.261 56.9474C235.261 56.9474 231.367 52.6596 225.948 53.0324L227.472 51.3546C227.472 51.3546 223.747 49.8632 220.36 53.7781C218.58 55.8361 216.52 58.2552 215.236 60.9803H213.241L214.073 62.8135L211.159 64.6467L214.15 64.3174C213.972 65.3213 213.945 66.3461 214.069 67.3581C214.197 68.3704 214.714 69.2932 215.51 69.9318C215.51 69.9318 217.82 65.1502 217.82 64.4045V66.2688C217.82 66.2688 219.683 64.5909 219.683 63.4724L220.699 64.7774L221.207 62.7266L227.472 64.7774L226.456 63.0995L230.351 63.6588L228.827 61.6081L234.857 70.0762C234.857 70.0762 238.309 60.4895 233.399 57.6931Z" fill="#2F2E41"/>
<path d="M235.953 143.99C236.05 143.371 236.283 142.78 236.633 142.26C236.983 141.741 237.443 141.304 237.981 140.981C238.518 140.658 239.12 140.457 239.743 140.392C240.367 140.327 240.997 140.399 241.589 140.604L251.013 128.629L253.512 136.143L244.18 146.363C243.77 147.335 243.018 148.124 242.065 148.578C241.113 149.033 240.027 149.123 239.012 148.831C237.998 148.538 237.127 147.884 236.563 146.992C235.999 146.099 235.782 145.031 235.953 143.99V143.99Z" fill="#FFB7B7"/>
<path d="M251.997 139.76L248.441 144.107L243.7 135.81L245.675 132.254L251.997 139.76Z" fill="#E5E5E5"/>
<path d="M251.207 84.4449L254.368 82.8645C254.368 82.8645 256.738 86.0254 257.133 88.7912C257.529 91.5569 259.504 95.1129 259.504 97.0885C259.504 99.064 265.036 117.634 265.036 117.634L252.392 143.316C252.392 143.316 249.626 133.834 243.7 133.044L253.577 119.215L248.046 109.337L251.207 84.4449Z" fill="#2F2E41"/>
<path d="M319.601 238.226H167.566C167.46 238.226 167.359 238.184 167.284 238.109C167.209 238.035 167.167 237.933 167.167 237.827C167.167 237.721 167.209 237.62 167.284 237.545C167.359 237.47 167.46 237.428 167.566 237.428H319.601C319.707 237.428 319.808 237.47 319.883 237.545C319.958 237.62 320 237.721 320 237.827C320 237.933 319.958 238.035 319.883 238.109C319.808 238.184 319.707 238.226 319.601 238.226Z" fill="#CBCBCB"/>
<path d="M145.65 84.5969H0V51.0774H145.65V84.5969Z" fill="white"/>
<path d="M21.0208 62.1604C20.6448 62.161 20.2845 62.3108 20.0188 62.5769C19.7532 62.843 19.604 63.2036 19.604 63.5796C19.604 63.9555 19.7532 64.3161 20.0188 64.5822C20.2845 64.8483 20.6448 64.9981 21.0208 64.9987H124.636C125.012 64.9981 125.372 64.8483 125.638 64.5822C125.903 64.3161 126.052 63.9555 126.052 63.5796C126.052 63.2036 125.903 62.843 125.638 62.5769C125.372 62.3108 125.012 62.161 124.636 62.1604H21.0208Z" fill="#4C86A8"/>
<path d="M21.0203 70.6755C20.8339 70.6751 20.6493 70.7115 20.477 70.7824C20.3047 70.8534 20.148 70.9576 20.0159 71.0891C19.8839 71.2206 19.779 71.3768 19.7073 71.5488C19.6356 71.7209 19.5985 71.9053 19.5981 72.0917C19.5978 72.2781 19.6341 72.4627 19.705 72.635C19.776 72.8073 19.8802 72.964 20.0117 73.0961C20.1432 73.2281 20.2994 73.333 20.4714 73.4046C20.6435 73.4763 20.8279 73.5134 21.0143 73.5138H86.5207C86.7073 73.5141 86.8921 73.4777 87.0645 73.4065C87.237 73.3353 87.3937 73.2308 87.5258 73.099C87.6578 72.9672 87.7625 72.8106 87.834 72.6383C87.9055 72.466 87.9423 72.2812 87.9423 72.0947C87.9423 71.9081 87.9055 71.7234 87.834 71.551C87.7625 71.3787 87.6578 71.2222 87.5258 71.0903C87.3937 70.9585 87.237 70.8541 87.0645 70.7829C86.8921 70.7117 86.7073 70.6752 86.5207 70.6755H21.0203Z" fill="#4C86A8"/>
<path d="M145.65 84.5969H0V51.0774H145.65V84.5969ZM2.39425 82.2026H143.256V53.4716H2.39425V82.2026Z" fill="#E5E5E5"/>
<path d="M145.65 135.674H0V102.155H145.65V135.674Z" fill="white"/>
<path d="M21.0208 113.238C20.6448 113.238 20.2845 113.388 20.0188 113.654C19.7532 113.92 19.604 114.281 19.604 114.657C19.604 115.033 19.7532 115.394 20.0188 115.66C20.2845 115.926 20.6448 116.075 21.0208 116.076H124.636C125.012 116.075 125.372 115.926 125.638 115.66C125.903 115.394 126.052 115.033 126.052 114.657C126.052 114.281 125.903 113.92 125.638 113.654C125.372 113.388 125.012 113.238 124.636 113.238H21.0208Z" fill="#E6E6E6"/>
<path d="M21.0203 121.753C20.8339 121.752 20.6493 121.789 20.477 121.86C20.3047 121.931 20.148 122.035 20.0159 122.166C19.8839 122.298 19.779 122.454 19.7073 122.626C19.6356 122.798 19.5985 122.982 19.5981 123.169C19.5978 123.355 19.6341 123.54 19.705 123.712C19.776 123.884 19.8802 124.041 20.0117 124.173C20.1432 124.305 20.2994 124.41 20.4714 124.482C20.6435 124.553 20.8279 124.591 21.0143 124.591H86.5207C86.7073 124.591 86.8921 124.555 87.0645 124.484C87.237 124.412 87.3937 124.308 87.5258 124.176C87.6578 124.044 87.7625 123.888 87.834 123.715C87.9055 123.543 87.9423 123.358 87.9423 123.172C87.9423 122.985 87.9055 122.801 87.834 122.628C87.7625 122.456 87.6578 122.299 87.5258 122.167C87.3937 122.036 87.237 121.931 87.0645 121.86C86.8921 121.789 86.7073 121.752 86.5207 121.753H21.0203Z" fill="#E6E6E6"/>
<path d="M145.65 135.674H0V102.155H145.65V135.674ZM2.39425 133.28H143.256V104.549H2.39425V133.28Z" fill="#E5E5E5"/>
<path d="M146.847 33.5195H1.19702V0H146.847V33.5195Z" fill="white"/>
<path d="M22.218 11.083C21.8421 11.0836 21.4817 11.2334 21.2161 11.4995C20.9505 11.7656 20.8013 12.1262 20.8013 12.5022C20.8013 12.8781 20.9505 13.2387 21.2161 13.5048C21.4817 13.7709 21.8421 13.9207 22.218 13.9213H125.833C126.209 13.9207 126.569 13.7709 126.835 13.5048C127.101 13.2387 127.25 12.8781 127.25 12.5022C127.25 12.1262 127.101 11.7656 126.835 11.4995C126.569 11.2334 126.209 11.0836 125.833 11.083H22.218Z" fill="#4C86A8"/>
<path d="M22.2176 19.5981C21.8412 19.5974 21.4799 19.7461 21.2132 20.0117C20.9465 20.2773 20.7962 20.6379 20.7954 21.0143C20.7946 21.3907 20.9434 21.752 21.209 22.0187C21.4745 22.2854 21.8352 22.4357 22.2116 22.4365H87.718C87.9046 22.4368 88.0894 22.4003 88.2618 22.3291C88.4343 22.2579 88.591 22.1534 88.723 22.0216C88.8551 21.8898 88.9598 21.7333 89.0313 21.5609C89.1027 21.3886 89.1395 21.2039 89.1395 21.0173C89.1395 20.8307 89.1027 20.646 89.0313 20.4737C88.9598 20.3013 88.8551 20.1448 88.723 20.013C88.591 19.8812 88.4343 19.7767 88.2618 19.7055C88.0894 19.6343 87.9046 19.5978 87.718 19.5981H22.2176Z" fill="#4C86A8"/>
<path d="M146.847 33.5195H1.19702V0H146.847V33.5195ZM3.59127 31.1253H144.453V2.39425H3.59127V31.1253Z" fill="#E5E5E5"/>
<path d="M294.991 238.41V209.544C294.991 209.544 306.24 230.009 294.991 238.41Z" fill="#F1F1F1"/>
<path d="M295.685 238.405L274.421 218.884C274.421 218.884 297.104 224.437 295.685 238.405Z" fill="#F1F1F1"/>
</g>
<defs>
<clipPath id="clip0">
<rect width="320" height="238.41" fill="white"/>
</clipPath>
</defs>
</svg>
